<svg height="512pt" viewBox="0 0 512.00021 512" width="512pt" xmlns="http://www.w3.org/2000/svg"><g fill="#fcc49d"><path d="m170.273438 343.292969c46.707031 0 84.785156-37.566407 85.660156-84.074219-3.054688-2.125-6.761719-3.378906-10.769532-3.363281-10.316406.039062-18.601562 8.6875-18.660156 19.003906-.148437 26.472656-21.726562 47.964844-48.234375 47.964844-18.765625 0-34.988281-13.089844-38.960937-31.429688l-.09375-.441406c-3.789063-4.710937-6.554688-10.328125-7.902344-16.554687l-.1875-.859376c-1.933594-8.949218-.730469-18.292968 3.410156-26.460937l4.945313-9.746094c3.640625-7.183593 9.328125-13.191406 16.449219-16.957031 18.632812-9.855469 39.351562-6.53125 53.105468 6.382812l7.953125 7.472657c7.707031 7.238281 19.917969 6.6875 26.9375-1.339844 2.800781-3.199219 4.25-7.105469 4.472657-11.078125l-4.980469-4.675781c-15.4375-14.496094-35.738281-22.945313-56.914063-22.964844-21.578125-.019531-41.695312 8.257813-56.703125 22.578125 14.695313-16.222656 31.941407-29.53125 51.039063-39.511719-.777344-.023437-1.554688-.058593-2.332032-.058593-21.578124-.019532-41.695312 8.257812-56.703124 22.578124 24.574218-27.128906 56.269531-46.117187 91.859374-54.992187l23.828126-5.941406c7.894531-1.96875 13.324218-8.710938 14.015624-16.382813-4.238281-2.90625-9.640624-4.070312-15.019531-2.726562l-23.828125 5.941406c-32.535156 8.109375-62.359375 23.261719-87.777344 44.390625l.007813-.007813c23.890625-25.957031 52.203125-46.703124 84.152344-61.65625.886719-.414062 1.707031-.90625 2.492187-1.433593l-6.871094 1.714843c-32.535156 8.109376-62.359374 23.261719-87.777343 44.390626l.007812-.007813c23.890625-25.957031 52.203125-46.703125 84.152344-61.65625 6.214844-2.910156 10.050781-8.8125 10.628906-15.183594-5.257812-3.601562-12.214843-4.421875-18.402343-1.527343-36.359376 17.019531-68.578126 40.625-95.761719 70.164062l-.160157.265625c7.539063-17.875 16.875-34.710937 27.902344-50.390625-12.707031 10.035156-24.648437 21.082031-35.738281 33.132812l-.160156.265626c13.707031-32.511719 33.335937-61.605469 58.347656-86.484376 3.230469-3.210937 5.023437-7.316406 5.398437-11.523437-7.328124-4.953125-17.566406-3.933594-24.089843 2.585937-.984375.976563-1.957031 1.964844-2.921875 2.957032-32.375 33.199218-56.199219 73.765625-70.386719 117.910156l-14.875 46.285156c-4.882813 15.199219-10.953125 29.988282-18.15625 44.238282l-4.675781 9.25v89.960937h152.277344zm0 0"/><path d="m221.402344 247.859375 3.582031 3.363281c7.707031 7.238282 19.917969 6.6875 26.9375-1.339844.519531-.589843.976563-1.214843 1.40625-1.855468-3.28125-5.5-9.28125-9.191406-16.160156-9.164063-6.664063.023438-12.464844 3.652344-15.765625 8.996094zm0 0"/><path d="m479.167969 328.9375c4.882812-15.195312 10.953125-29.988281 18.15625-44.234375l4.675781-9.25v-85.964844h-156.277344c-44.257812 0-80.785156 33.726563-85.242187 76.824219 3.453125 4.0625 8.59375 6.640625 14.347656 6.617188 10.316406-.035157 18.605469-8.6875 18.660156-19.003907.148438-26.472656 21.730469-47.964843 48.234375-47.964843 18.765625 0 34.992188 13.089843 38.960938 31.429687l.1875.863281c.808594 3.742188 1.0625 7.554688.785156 11.324219 1.328125 2.761719 2.355469 5.707031 3.023438 8.804687l.1875.863282c1.9375 8.949218.734374 18.292968-3.410157 26.460937l-4.941406 9.746094c-3.644531 7.183594-9.328125 13.191406-16.449219 16.957031-18.632812 9.851563-39.351562 6.53125-53.105468-6.386718l-7.957032-7.46875c-7.703125-7.238282-19.917968-6.691407-26.9375 1.335937-1.253906 1.4375-2.242187 3.015625-2.96875 4.679687.195313.199219.382813.414063.589844.609376l6.890625 6.46875c15.4375 14.496093 35.738281 22.945312 56.914063 22.964843 21.578124.019531 41.691406-8.257812 56.703124-22.578125-16.652343 18.378906-36.574218 33.019532-58.757812 43.308594 2.007812.15625 4.023438.257812 6.050781.261719 21.578125.015625 41.695313-8.257813 56.703125-22.578125-24.574218 27.128906-56.269531 46.117187-91.859375 54.992187l-23.828125 5.941407c-5.742187 1.429687-10.179687 5.394531-12.441406 10.398437 4.460938 4.324219 10.972656 6.328125 17.445312 4.714844l23.828126-5.941407c32.535156-8.113281 62.359374-23.261718 87.777343-44.394531l-.007812.007813c-23.890625 25.960937-52.203125 46.703125-84.152344 61.660156-2.796875 1.308594-5.105469 3.230469-6.863281 5.523438l7.246094-1.808594c32.535156-8.109375 62.359374-23.261719 87.777343-44.390625l-.007812.007812c-23.890625 25.957031-52.203125 46.703125-84.15625 61.65625-4.191407 1.960938-7.292969 5.289063-9.058594 9.199219 5.386719 5.226562 13.632813 6.882812 20.832031 3.511719 36.359375-17.015625 68.578125-40.621094 95.761719-70.164063l.160156-.261718c-7.84375 18.597656-17.632812 36.074218-29.253906 52.289062 11.726563-9.464844 22.773437-19.820312 33.09375-31.035156l.15625-.265625c-13.703125 32.507812-33.335937 61.605469-58.347656 86.480469-1.652344 1.644531-2.914063 3.527343-3.820313 5.535156 7.328125 7.085937 19.226563 6.683594 26.511719-.589844.980469-.980469 1.957031-1.964844 2.921875-2.957031 32.375-33.199219 56.199219-73.765625 70.386719-117.914063zm0 0"/><path d="m296.921875 279.359375-1.914063-1.796875c-7.707031-7.238281-19.917968-6.6875-26.9375 1.339844-2.039062 2.328125-3.363281 5.035156-4.019531 7.867187 3.445313 4.367188 8.777344 7.175781 14.773438 7.152344 8.789062-.03125 16.085937-6.324219 18.097656-14.5625zm0 0"/></g><path d="m10 333.304688c-2.628906 0-5.210938 1.058593-7.070312 2.917968-1.859376 1.867188-2.92578175 4.4375-2.92578175 7.066406 0 2.640626 1.06640575 5.21875 2.92578175 7.078126 1.863281 1.859374 4.441406 2.917968 7.070312 2.917968s5.207031-1.058594 7.0625-2.917968c1.859375-1.871094 2.929688-4.4375 2.929688-7.078126 0-2.617187-1.066407-5.199218-2.929688-7.066406-1.855469-1.859375-4.433594-2.917968-7.0625-2.917968zm0 0"/><path d="m501.996094 178.496094c2.636718 0 5.207031-1.066406 7.074218-2.925782 1.859376-1.871093 2.929688-4.441406 2.929688-7.078124 0-2.628907-1.070312-5.207032-2.929688-7.058594-1.867187-1.867188-4.4375-2.925782-7.074218-2.925782-2.632813 0-5.210938 1.058594-7.070313 2.925782-1.859375 1.851562-2.917969 4.429687-2.917969 7.058594 0 2.636718 1.058594 5.21875 2.917969 7.078124 1.859375 1.859376 4.4375 2.925782 7.070313 2.925782zm0 0"/><path d="m506.507812 266.53125c-4.925781-2.492188-10.941406-.515625-13.429687 4.414062l-4.675781 9.25c-7.414063 14.667969-13.722656 30.039063-18.753906 45.683594l-14.875 46.289063c-13.867188 43.160156-37.390626 82.578125-68.023438 113.992187-.9375.957032-1.878906 1.914063-2.828125 2.859375-1.800781 1.800781-4.316406 2.785157-6.828125 2.777344-2.308594-.03125-4.414062-.925781-5.929688-2.519531-3.191406-3.363282-3.109374-8.757813.179688-12.027344 25.9375-25.800781 46.296875-55.976562 60.507812-89.6875 2.144532-5.089844-.238281-10.949219-5.328124-13.09375-4.300782-1.8125-9.144532-.378906-11.839844 3.175781-26.207032 28.355469-57.21875 51.035157-92.199219 67.40625-4.300781 2.015625-9.433594.152344-11.445313-4.144531-.976562-2.082031-1.082031-4.421875-.296874-6.582031.78125-2.164063 2.363281-3.890625 4.445312-4.867188 32.90625-15.402343 62.089844-36.734375 86.757812-63.398437 9.195313-7.683594 17.839844-16.117188 25.851563-25.261719 3.636719-4.152344 3.21875-10.46875-.933594-14.105469-4.152343-3.640625-10.46875-3.222656-14.105469.933594-28.535156 32.574219-65.824218 55.332031-107.84375 65.808594l-23.832031 5.941406c-2.226562.554688-4.542969.210938-6.511719-.972656-1.972656-1.1875-3.363281-3.066406-3.921874-5.300782-1.148438-4.605468 1.667968-9.285156 6.269531-10.433593l23.828125-5.941407c37.414062-9.328124 70.742187-29.253906 96.621094-57.71875 7.34375-7.0625 13.589843-15.417968 18.382812-24.871093 2.5-4.921875.53125-10.9375-4.390625-13.433594-4.925781-2.496094-10.941406-.53125-13.4375 4.390625-3.09375 6.097656-6.953125 11.613281-11.429687 16.464844-.621094.441406-1.203126.953125-1.726563 1.550781-.582031.664063-1.171875 1.316406-1.761719 1.972656-13.136718 12.386719-30.65625 19.539063-49.441406 19.539063-.023438 0-.042969 0-.0625 0-18.402344-.019532-36.1875-7.210938-50.082031-20.257813l-6.890625-6.46875c-3.566406-3.351562-3.988282-8.921875-.933594-12.414062 1.582031-1.808594 3.769531-2.871094 6.15625-2.988281 2.402344-.125 4.667969.722656 6.410156 2.359374l7.957032 7.46875c17.425781 16.363282 42.792968 19.480469 64.621093 7.9375 8.851563-4.683593 16.007813-12.039062 20.691407-21.273437l4.941406-9.75c5.164062-10.183594 6.679687-21.933594 4.265625-33.09375l-.1875-.863281c-4.929688-22.777344-25.425781-39.3125-48.730469-39.3125-31.929688 0-58.050781 25.976562-58.230469 57.902344-.027343 4.898437-4.011719 9.050781-8.703125 9.066406-.011718 0-.019531 0-.03125 0-2.328125 0-4.519531-.902344-6.167968-2.546875-1.660157-1.648438-2.570313-3.847657-2.570313-6.1875 0-41.746094 33.960937-75.707031 75.703125-75.707031h120.089844c5.519531 0 9.996094-4.472657 9.996094-9.996094 0-5.519532-4.476563-9.996094-9.996094-9.996094h-120.085938c-37.027344 0-69.210937 21.140625-85.113281 51.988281-1.546875-4.101562-4.023437-7.9375-7.457031-11.164062l-6.890625-6.46875c-16.953125-15.921875-38.570313-24.9375-61.125-25.609375 11.070312-5.453125 22.765625-9.746094 34.945312-12.785156l23.828125-5.941407c15.300782-3.816406 24.648438-19.367187 20.832032-34.671875-1.847657-7.410156-6.472657-13.660156-13.015626-17.59375-6.550781-3.9375-14.242187-5.085937-21.652343-3.238281l-14.84375 3.703125c3.980469-3.230469 7.027343-7.492188 8.820312-12.441406 2.601563-7.179688 2.25-14.949219-.984375-21.867188-6.6875-14.28125-23.75-20.46875-38.027344-13.78125-18.875 8.832032-36.664062 19.390625-53.257812 31.574219 8.097656-11.140625 17.089844-21.660156 26.96875-31.488281 10.929688-10.867188 11.1875-28.796875.578125-39.96875-5.257813-5.535156-12.417969-8.640625-20.160156-8.746094-7.878907-.078125-15.628907 3.039062-21.222657 8.625-1.011718 1.007812-2.011718 2.023438-3.011718 3.046875-32.78125 33.621094-57.933594 75.75-72.746094 121.835937l-14.875 46.285157c-4.710938 14.65625-10.617188 29.050781-17.5625 42.789062l-4.671875 9.25c-2.492187 4.925781-.515625 10.9375 4.410156 13.429688 1.445313.730469 2.984375 1.074219 4.5 1.074219 3.652344 0 7.171875-2.003907 8.929688-5.488282l4.675781-9.25c7.414062-14.667968 13.722656-30.039062 18.753906-45.6875l14.875-46.285156c13.867188-43.160156 37.390625-82.574219 68.019532-113.988281.9375-.960938 1.882812-1.917969 2.832031-2.867188 1.800781-1.796875 4.316406-2.808593 6.828125-2.773437 2.308594.03125 4.414062.925781 5.929687 2.519531 3.191407 3.363281 3.109375 8.757813-.179687 12.027344-25.9375 25.796875-46.296875 55.972656-60.507813 89.6875-2.148437 5.085937.238281 10.949219 5.328125 13.09375 4.296875 1.8125 9.144532.378906 11.839844-3.179688 26.207031-28.355469 57.222656-51.035156 92.199219-67.40625 4.296875-2.011719 9.433593-.148437 11.445312 4.148438.972657 2.082031 1.078125 4.421875.296875 6.582031-.785156 2.160156-2.363281 3.890625-4.445312 4.863281-32.910156 15.402344-62.09375 36.734375-86.761719 63.402344-9.195313 7.6875-17.839844 16.117187-25.847656 25.257813-3.636719 4.15625-3.21875 10.46875.933593 14.105468 4.152344 3.640625 10.46875 3.21875 14.105469-.933594 28.53125-32.574218 65.824219-55.332031 107.84375-65.808593l23.828125-5.941407c2.230469-.554687 4.546875-.210937 6.515625.972657 1.972657 1.183593 3.363281 3.066406 3.921875 5.296875 1.144532 4.609375-1.667968 9.289062-6.269531 10.4375l-23.832031 5.941406c-37.40625 9.328125-70.734375 29.25-96.613282 57.710938-7.34375 7.066406-13.59375 15.425781-18.386718 24.878906-2.5 4.921875-.53125 10.9375 4.390625 13.4375 4.925781 2.496094 10.9375.527344 13.4375-4.394532 3.089843-6.09375 6.945312-11.605468 11.417969-16.453124.625-.441407 1.210937-.960938 1.738281-1.5625.582031-.664063 1.171875-1.320313 1.761719-1.972657 13.136718-12.386719 30.65625-19.535156 49.445312-19.535156h.0625c18.398438.011719 36.183594 7.207031 50.078125 20.25l6.890625 6.472656c3.570312 3.351563 3.988281 8.921875.9375 12.414063-1.585938 1.808594-3.769531 2.871094-6.160156 2.988281-2.382813.117187-4.667969-.71875-6.410156-2.359375l-7.957032-7.46875c-17.425781-16.363281-42.792968-19.480469-64.621094-7.9375-8.851562 4.683594-16.007812 12.039062-20.691406 21.273438l-4.941406 9.746093c-5.164062 10.183594-6.679688 21.9375-4.265625 33.101563l.1875.859375c4.933594 22.777343 25.425781 39.308593 48.730469 39.308593 31.929687 0 58.050781-25.972656 58.230468-57.902343.027344-4.894531 4.015626-9.046875 8.703126-9.066407h.03125c2.328124 0 4.519531.90625 6.167968 2.546876 1.660156 1.652343 2.570313 3.851562 2.570313 6.191406 0 41.742187-33.960938 75.703125-75.703125 75.703125h-120.296875c-5.519531 0-9.996094 4.476562-9.996094 9.996093 0 5.519532 4.476563 9.996094 9.996094 9.996094h120.292969c37.027343 0 69.210937-21.140625 85.113281-51.984375 1.546875 4.097657 4.023437 7.9375 7.457031 11.164063l6.890625 6.46875c16.953125 15.917968 38.570313 24.9375 61.125 25.605468-11.070313 5.453126-22.765625 9.75-34.945313 12.785157l-23.828124 5.941406c-15.300782 3.816406-24.644532 19.367187-20.832032 34.671875 1.847656 7.414062 6.472656 13.660156 13.019532 17.597656 4.503906 2.707032 9.550781 4.097656 14.675781 4.097656 2.324219 0 4.664062-.285156 6.976562-.863281l14.84375-3.703125c-3.984375 3.234375-7.027343 7.496094-8.820312 12.441406-2.605469 7.183594-2.253907 14.949219.984375 21.871094 4.855468 10.375 15.183594 16.472656 25.949218 16.472656 4.054688 0 8.167969-.867187 12.078126-2.695312 18.871093-8.832031 36.660156-19.386719 53.257812-31.574219-8.101562 11.140625-17.09375 21.664063-26.972656 31.488281-10.925782 10.867188-11.183594 28.796876-.578125 39.96875 5.257812 5.535157 12.417969 8.640626 20.160156 8.746094h.382813c7.761718 0 15.335937-3.128906 20.839843-8.621094 1.011719-1.011718 2.015625-2.027343 3.011719-3.050781 32.78125-33.617187 57.9375-75.746093 72.746094-121.832031l14.875-46.289062c4.710937-14.652344 10.617187-29.046876 17.5625-42.785157l4.671875-9.25c2.492187-4.921875.515625-10.933593-4.410157-13.425781zm-203.023437-12.550781c.117187-20.964844 17.269531-38.023438 38.238281-38.023438 13.960938 0 26.238282 9.90625 29.191406 23.550781l.1875.859376c1.445313 6.6875.539063 13.726562-2.554687 19.828124l-4.941406 9.746094c-2.808594 5.53125-7.027344 9.902344-12.210938 12.640625-14.160156 7.492188-30.484375 5.59375-41.585937-4.835937l-7.957032-7.46875c-.722656-.675782-1.46875-1.3125-2.242187-1.90625 2.4375-4.242188 3.847656-9.160156 3.875-14.390625zm-94.972656 3.832031c-.117188 20.964844-17.269531 38.023438-38.238281 38.023438-13.960938 0-26.238282-9.90625-29.191407-23.550782l-.1875-.859375c-1.445312-6.6875-.539062-13.726562 2.558594-19.828125l4.941406-9.746094c2.804688-5.53125 7.023438-9.902343 12.207031-12.640624 5.753907-3.046876 11.867188-4.539063 17.84375-4.539063 8.726563 0 17.15625 3.183594 23.746094 9.375l7.953125 7.46875c.722657.675781 1.472657 1.3125 2.242188 1.90625-2.433594 4.242187-3.84375 9.160156-3.875 14.390625zm0 0"/></svg>