<svg height="512" viewBox="0 0 61 60" width="512" xmlns="http://www.w3.org/2000/svg"><g id="029---Sign-Language-V" fill="none"><g id="Icons" transform="translate(1)"><path id="Shape" d="m34 50.78v6.22c0 1.1045695-.8954305 2-2 2h-24c-1.1045695 0-2-.8954305-2-2v-7.78z" fill="#dfc49c"/><path id="Shape" d="m31 50.78v6.22c.0512496 1.0442035-.7465267 1.9355735-1.79 2h-21.42c-1.04347334-.0644265-1.84124956-.9557965-1.79-2v-7.78z" fill="#ffe0b2"/><path id="Shape" d="m39.71 5.61c-3.01 19.39-2.71 18.09-3 18.64l-7.52-.25c-.45-1.36-3.55 18.74 2.61-19.61.3368937-2.18428619 2.3807138-3.6818937 4.565-3.345s3.6818937 2.38071381 3.345 4.565z" fill="#dfc49c"/><path id="Shape" d="m36.71 5.61c-3.19 20.57-2.71 17.78-3 18.64-5.15-.17-4.51-.14-5.08-.17.45-2.76 0 .15 3.17-19.69.2188444-1.3912456 1.1532031-2.56489129 2.46-3.09 1.7158624.69636141 2.7294346 2.47942106 2.45 4.31z" fill="#ffe0b2"/><path id="Shape" d="m41 30v12c0 4.9705627-4.0294373 9-9 9h-20c-6.07513225 0-11-4.9248678-11-11v-23l8 2 7-7.78c-.05-.1 0 .1-.72-4.61-.2428913-2.13335445 1.2418562-4.07793377 3.3638391-4.40563238 2.1219828-.32769861 4.1241754 1.07839121 4.5361609 3.18563238 3 19.27 2.82 18.06 2.82 18.61h9c3.3137085 0 6 2.6862915 6 6z" fill="#dfc49c"/><g fill="#ffe0b2"><path id="Shape" d="m38 30v12c0 2.3869484-.9482116 4.6761336-2.636039 6.363961s-3.9770126 2.636039-6.363961 2.636039h-17c-6.07513225 0-11-4.9248678-11-11v-22.25l5 1.25.55-.61 2.45.61 7-7.78c-.05-.1 0 .1-.72-4.61-.2780245-1.83317722.7401883-3.61711908 2.46-4.31 1.3029171.52790983 2.2330656 1.70103587 2.45 3.09 3 19 2.84 18.07 2.8 18.61h9c1.5930309-.0026551 3.1217246.6283137 4.2491066 1.7538199 1.127382 1.1255061 1.7608956 2.653147 1.7608934 4.2461801z"/><path id="Shape" d="m6.66 28c-2.07910148.3651612-4.0840925-.9481517-4.58-3l-1.08-7c-.28273218-1.3313232.12041698-2.7157492 1.07370643-3.687139.95328945-.9713899 2.32988842-1.4005048 3.66629357-1.142861 1.63673161.3296969 2.89652085 1.6413129 3.16 3.29l1.1 6.91c.1813595 1.0582772-.07035296 2.145034-.6985162 3.0158112-.62816323.8707772-1.58003002 1.4524551-2.6414838 1.6141888z"/><path id="Shape" d="m14.56 26.69c-2.1743917.3357598-4.211743-1.1475749-4.56-3.32l-1.59-9.88c-.2955602-2.1566669 1.18774717-4.1537501 3.337824-4.49395213 2.1500769-.34020204 4.1774783 1.10138923 4.562176 3.24395213l1.57 9.87c.3478958 2.1815143-1.1384987 4.2320224-3.32 4.58z"/></g><path id="Shape" d="m50.09 57.6-5-16c-.3313708-1.0548639.2551361-2.1786291 1.31-2.51 1.0548639-.3313708 2.1786291.2551361 2.51 1.31l3.09 9.89 3.09-9.89c.3313709-1.0548639 1.4551361-1.6413708 2.51-1.31 1.0548639.3313709 1.6413708 1.4551361 1.31 2.51l-5 16c-.2598448.8366383-1.0339389 1.4067884-1.91 1.4067884s-1.6501552-.5701501-1.91-1.4067884z" fill="#ef314c"/><path id="Shape" d="m58.91 41.6-5 16c-.2167655.6888372-.7880323 1.2073267-1.4945927 1.3565124-.7065603.1491858-1.438672-.0941035-1.9154073-.6365124.4-.45 0 .6 5.41-16.72.2084734-.6676628.0530017-1.3957251-.41-1.92.6240594-.7096637 1.6596767-.8856692 2.483144-.4220161.8234673.4636532 1.2100208 1.4404118.926856 2.3420161z" fill="#bb193b"/></g><g id="Layer_2" fill="#000" transform="translate(0 -1)"><path id="Shape" d="m12 55h-1c-.5522847 0-1 .4477153-1 1s.4477153 1 1 1h1c.5522847 0 1-.4477153 1-1s-.4477153-1-1-1z"/><path id="Shape" d="m15 56c0 .5522847.4477153 1 1 1h15c.5522847 0 1-.4477153 1-1s-.4477153-1-1-1h-15c-.5522847 0-1 .4477153-1 1z"/><path id="Shape" d="m1 41c.00540291 3.8585759 1.86593204 7.4791656 5 9.73v7.27c0 1.6568542 1.34314575 3 3 3h24c1.6568542 0 3-1.3431458 3-3v-5.46c4.1662347-1.3102202 7.0002655-5.1725993 7-9.54v-12c-.0046399-2.7313946-1.5975914-5.2106206-4.08-6.35.06-.34.12-.72 2.78-17.89.4197363-2.73104806-1.453952-5.28526349-4.185-5.7049999-2.7310481-.4197364-5.2852635 1.45395186-5.705 4.1849999-3.01 19.46-2.81 18.02-2.81 18.76h-1.07l-2.75-17.76c-.4850168-2.66423368-3.0029047-4.45811397-5.6794369-4.04633979s-4.5387849 2.87952226-4.2005631 5.56633979l.25 1.63c-1.5273388-.74076246-3.3261938-.65601847-4.7771282.22505033-1.45093442.88106877-2.35574955 2.43810777-2.4028718 4.13494967-1.7160338-.9835143-3.850544-.8630111-5.44497877.3073949s-2.34907085 3.1707008-1.92502123 5.1026051zm32.79-35.45c.149158-1.07143441.8635939-1.97959031 1.8697984-2.37679598s2.1483286-.22193874 2.9891298.45870289c.8408013.68064163 1.2500498 1.76123477 1.0710718 2.82809309l-2.72 17.62c-.74-.11-.44-.08-6-.08 0-.49-.23 1 2.79-18.45zm-14.02-1.55c.7864156-.12366682 1.5897386.07030745 2.23307.5392079.6433315.46890046 1.0739142 1.17427441 1.19693 1.9607921l2.71 17.5c-1.7863279.016077-3.4283861.9839273-4.307627 2.5389711-.8792409 1.5550439-.862087 3.4610331.045 5 .907087 1.538967 2.5662991 2.4771059 4.352627 2.4610289h2.7c-2.9403184 2.054289-4.6943865 5.4131429-4.7 9v1c0 .5522847.4477153 1 1 1s1-.4477153 1-1v-1c0-4.9705627 4.0294373-9 9-9h2c.5522847 0 1-.4477153 1-1s-.4477153-1-1-1h-11c-1.6568542 0-3-1.3431458-3-3s1.3431458-3 3-3h10c2.7614237 0 5 2.2385763 5 5v12c0 4.418278-3.581722 8-8 8-.5522847 0-1 .4477153-1 1s.4477153 1 1 1h1v5c0 .5522847-.4477153 1-1 1h-24c-.55228475 0-1-.4477153-1-1v-6.11c1.56498195.7325365 3.2720602 1.1115079 5 1.11.5522847 0 1-.4477153 1-1s-.4477153-1-1-1c-2.6521649 0-5.19570403-1.0535684-7.07106781-2.9289322-1.87536379-1.8753638-2.92893219-4.4189029-2.92893219-7.0710678v-13c1.03604025 1.3785318 2.70931631 2.1258967 4.42736752 1.9774733 1.7180512-.1484233 3.23836198-1.1716838 4.02263248-2.7074733 1.5329439 1.4730342 3.8297456 1.8156273 5.7258353.8540711 1.8960898-.9615562 2.9767988-3.0169725 2.6941647-5.1240711-1.75-11-1.57-10.19-1.89-11l-.7-4.51c-.1414368-.79413837.0428861-1.61177558.5113772-2.26841568s1.1816741-1.09695305 1.9786228-1.22158432zm-6.88 6.9c.787963-.1265708 1.5938829.0660364 2.2394682.5352118.6455853.4691753 1.077622 1.1762458 1.2005318 1.9647882l1.57 9.87c.1679148 1.0592925-.2420513 2.1277006-1.0754681 2.8027653-.8334167.6750648-1.9636684.8542278-2.965.47-1.0013316-.3842277-1.7216171-1.2734728-1.8895319-2.3327653l-1.57-9.87c-.1267503-.7864744.0645096-1.5910683.5316093-2.2363787.4670997-.6453105 1.1716803-1.0783437 1.9583907-1.2036213zm-7.43 4.22c1.6343566-.2578806 3.16894202.8561479 3.43 2.49l1.11 6.92c.3396551 1.6375243-.71247572 3.2403449-2.35 3.58s-3.24034488-.7124757-3.58-2.35c-1.24-7.76-1.07-6.38-1.07-7.76.00467839-.0465494.00467839-.0934506 0-.14.09710757-1.368347 1.10999241-2.4965195 2.46-2.74z"/><path id="Shape" d="m55.86 58.89 5-16c.3785989-1.0381505.1558351-2.2003799-.5797935-3.0249672-.7356287-.8245872-1.8650057-1.1780112-2.9394613-.9198664-1.0744557.2581448-1.9200089 1.0860582-2.2007452 2.1548336l-2.14 6.84-2.14-6.84c-.5491187-1.5057304-2.1848071-2.3139064-3.7143939-1.835242s-2.4127852 2.0750934-2.0056061 3.625242l5 16c.3948882 1.2468877 1.5520758 2.0942407 2.86 2.0942407s2.4651118-.847353 2.86-2.0942407zm-8.16-17.89c.2651131-.0927428.5570069-.0697198.804302.0634391s.4271917.3641769.495698.6365609l3.09 9.89c.1348836.4103745.5180268.6877501.95.6877501s.8151164-.2773756.95-.6877501l3.1-9.89c.1461851-.5233078.6834751-.8341367 1.21-.7.272384.0685063.503402.2484029.6365609.495698s.1561819.5391889.0634391.804302l-5 16c-.1244444.4266667-.5155556.72-.96.72s-.8355556-.2933333-.96-.72l-5-16c-.0954443-.2543513-.0832964-.5365881.0336498-.7817978s.3286244-.4322858.5863502-.5182022z"/></g></g></svg>