<svg height="512pt" viewBox="0 -34 512.03566 512" width="512pt" xmlns="http://www.w3.org/2000/svg"><path d="m451.667969 296.667969c-.582031 7.734375-.4375 15.503906.429687 23.210937 1.367188 13.929688 3.90625 27.714844 7.59375 41.214844 1.960938 7 16.296875 47.957031 19.285156 54.445312 3.683594 6.191407 6.988282 12.605469 9.898438 19.199219l-156.074219.425781s-21.25-75.777343-42.582031-86.273437c-17.664062 6.742187-40.019531 21.164063-54.1875 24.320313-4.4375.886718-9.046875-.042969-12.796875-2.574219s-6.332031-6.460938-7.171875-10.90625c-1.699219-4.8125-2.308594-9.941407-1.789062-15.019531 1.414062-5.25 1.902343-10.707032 1.449218-16.128907-1.621094-6.910156-.9375-8.53125-5.632812-12.203125-2.046875-1.621094 6.828125-8.191406 21.589844-13.90625 3.171874-1.214844 5.171874-4.367187 4.914062-7.753906-.253906-3.386719-2.703125-6.203125-6.023438-6.925781-11.574218-2.101563-22.984374-5.039063-34.132812-8.789063-2.644531-2.472656 1.109375-6.65625 4.609375-14.59375 1.417969-3.453125 1.832031-7.238281 1.191406-10.921875-1.277343-7.253906-11.433593-9.984375-16.382812-13.992187-2.390625-1.964844-6.144531-4.78125-6.570313-8.191406-.683594-4.867188 4.523438-11.605469 7.082032-15.019532 11.433593-15.191406 19.542968-21.675781 27.734374-39.167968 1.027344-1.832032 1.613282-3.878907 1.707032-5.972657-.085938-9.644531-12.972656-13.742187-14.164063-23.042969-.175781-2.761718.261719-5.53125 1.277344-8.105468 3.628906-8.324219 6.707031-16.875 9.214844-25.601563 1.519531-7.988281 3.515625-15.882812 5.976562-23.636719 5.042969-15.410156 13.078125-29.675781 23.636719-41.984374 15.855469-16.308594 36.519531-27.105469 58.964844-30.804688 19.492187-4.632812 39.324218-7.714844 59.304687-9.214844 39.851563-2.21875 71.339844 12.457032 102.144531 38.742188 17.128907 14.097656 29.371094 33.238281 34.988282 54.699218 4.535156 18.15625 6.65625 36.835938 6.3125 55.550782-.097656 13.78125-2.910156 27.410156-8.277344 40.105468zm0 0" fill="#fdd7ad"/><path d="m332.800781 443.699219c-3.828125 0-7.183593-2.546875-8.21875-6.230469-7.78125-27.742188-23.277343-68.328125-35.335937-78.96875-6.109375 2.621094-12.800782 6.035156-19.34375 9.386719-10.121094 5.746093-20.859375 10.324219-32.011719 13.652343-13.558594 2.847657-26.894531-5.710937-29.957031-19.222656-2.101563-6.023437-2.824219-12.4375-2.117188-18.773437.195313-1.707031.5625-3.628907.9375-5.539063.707032-2.4375.929688-4.988281.664063-7.507812-.347657-1.496094-.613281-2.773438-.851563-3.882813-.144531-.863281-.335937-1.71875-.570312-2.5625 0 0-.316406-.324219-1.1875-1.007812-2.523438-2.164063-3.820313-5.4375-3.457032-8.746094.929688-6.21875 9.226563-12.542969 24.652344-18.824219-31.949218-7.039062-33.492187-8.480468-35.421875-10.289062-6.613281-6.195313-2.507812-14.097656-.050781-18.773438.855469-1.5625 1.757812-3.363281 2.679688-5.453125.746093-1.941406.953124-4.046875.589843-6.09375-1.90625-1.824219-4.097656-3.320312-6.492187-4.429687-2.398438-1.242188-4.683594-2.6875-6.828125-4.324219-4.898438-3.152344-8.367188-8.097656-9.660157-13.773437.054688-7.777344 3.089844-15.238282 8.472657-20.847657 3.789062-5.050781 7.015625-8.933593 10.027343-12.570312 6.878907-7.617188 12.625-16.183594 17.066407-25.4375.359375-.722657.664062-1.472657.914062-2.242188 0-1.5625-2.253906-3.789062-4.601562-6.144531-4.917969-4.046875-8.28125-9.675781-9.511719-15.925781-.367188-4.039063.199219-8.113281 1.652344-11.902344 1.144531-3.269531 2.425781-6.382813 3.722656-9.496094 2.199219-4.878906 3.953125-9.945312 5.238281-15.140625l.144531-.878906c1.542969-8.023438 3.5625-15.949219 6.050782-23.730469 5.378906-16.476562 13.976562-31.71875 25.292968-44.84375 17-17.769531 39.316407-29.539062 63.582032-33.535156 19.929687-4.753906 40.210937-7.890625 60.648437-9.386719 39.140625-2.160156 72.53125 10.394532 108.160157 40.773438 18.414062 15.265625 31.59375 35.910156 37.699218 59.042968 4.746094 18.875 6.972656 38.296876 6.621094 57.761719-.09375 14.882813-3.136719 29.601563-8.953125 43.304688l-42.972656 97.613281c-.417969 6.730469-.25 13.480469.511719 20.179688 1.292968 13.457031 3.738281 26.773437 7.304687 39.808593 1.921875 6.828125 16.144531 47.378907 18.832031 53.230469 1.15625 2.472656 2.46875 4.867188 3.925782 7.167969 2.738281 4.125 4.90625 8.601562 6.445312 13.304687.714844 2.566406.191406 5.320313-1.414062 7.445313-1.609376 2.125-4.117188 3.375-6.78125 3.382812zm-26.683593-91.667969c15.511718 19.753906 28.015624 57.652344 33.082031 74.582031l135.816406-.367187c-1.441406-2.351563-2.738281-4.796875-3.875-7.3125-3.199219-6.964844-17.746094-48.699219-19.667969-55.542969-3.824218-13.941406-6.457031-28.183594-7.859375-42.574219-.925781-8.234375-1.074219-16.539062-.453125-24.804687.070313-.960938.308594-1.902344.703125-2.78125l43.519531-98.816407c4.910157-11.636718 7.476563-24.132812 7.550782-36.761718.351562-17.957032-1.679688-35.882813-6.042969-53.308594-5.15625-19.773438-16.453125-37.402344-32.261719-50.347656-32.011718-27.304688-61.699218-38.621094-96.128906-36.691406-19.53125 1.460937-38.917969 4.484374-57.96875 9.035156-20.660156 3.261718-39.71875 13.105468-54.339844 28.066406-9.839844 11.453125-17.316406 24.742188-21.988281 39.101562-2.273437 7.148438-4.121094 14.429688-5.53125 21.800782l-.179687.855468c-1.480469 6.226563-3.550782 12.296876-6.175782 18.132813-1.164062 2.824219-2.332031 5.640625-3.328125 8.53125-.523437 1.363281-.8125 2.808594-.855469 4.269531.207032 1.542969 2.464844 3.8125 4.652344 5.972656 5.539063 4.429688 9.003906 10.949219 9.582032 18.019532-.023438 3.292968-.851563 6.53125-2.40625 9.429687-5.050782 10.679688-11.621094 20.570313-19.507813 29.363281-2.851563 3.414063-5.921875 7.125-9.265625 11.582032-2.171875 2.558594-3.960938 5.414062-5.316406 8.480468.886718.914063 1.832031 1.769532 2.832031 2.5625 1.539063 1.160157 3.175781 2.191407 4.890625 3.078126 7.324219 2.828124 12.898438 8.933593 15.050781 16.488281.933594 5.367187.300781 10.886719-1.816406 15.90625-.855469 1.988281-1.785156 3.789062-2.613281 5.398437 4.457031 1.1875 12.347656 3.125 26.171875 6.144532 7.003906 1.523437 12.175781 7.460937 12.722656 14.605468.546875 7.144532-3.660156 13.800782-10.347656 16.371094-4.613281 1.742188-9.078125 3.851562-13.347657 6.316406.902344 2.101563 1.546876 4.308594 1.910157 6.570313.1875.9375.410156 2.023437.710937 3.308593.914063 4.894532.726563 9.933594-.546875 14.746094-.28125 1.425782-.570312 2.84375-.734375 4.269532-.386718 3.878906.105469 7.800781 1.433594 11.46875 1.109375 3.503906 3.847656 9.136718 9.984375 7.773437 9.722656-3.101563 19.097656-7.203125 27.980469-12.230469 8.136718-4.332031 16.488281-8.246094 25.019531-11.734375l.109375-.039062c6.164062-2.28125 11.761719-4.414063 16.214844-6.128907 4.703125-1.792968 8.242187-3.132812 10.050781-3.753906 24.664063-8.484375 29.679687-17.921875 29.542969-24.335937-.097656-4.710938 3.636718-8.613281 8.347656-8.714844h.1875c4.644531 0 8.433594 3.710937 8.53125 8.355469.367188 17.59375-13.445312 31.34375-41.078125 40.847656-1.707031.589844-5.070313 1.859375-9.496094 3.550781zm0 0" fill="#f09372"/><path d="m290.21875 357.433594c-4.144531.011718-7.695312-2.953125-8.425781-7.03125s1.574219-8.089844 5.464843-9.515625c6.167969-2.277344 11.777344-4.410157 16.273438-6.132813 4.703125-1.792968 8.242188-3.132812 10.050781-3.757812 24.664063-8.480469 29.679688-17.917969 29.542969-24.335938-.101562-4.710937 3.636719-8.609375 8.347656-8.710937h.1875c4.640625-.003907 8.433594 3.710937 8.53125 8.351562.367188 17.597657-13.449218 31.34375-41.078125 40.851563-1.707031.585937-5.070312 1.859375-9.5 3.546875-4.425781 1.691406-10.238281 3.894531-16.441406 6.195312-.945313.355469-1.945313.535157-2.953125.539063zm0 0" fill="#f09372"/><path d="m68.265625 358.363281h-.324219c-3.789062-.144531-7.03125-2.769531-7.953125-6.449219l-17.867187-71.503906-8.3125 29.101563c-1.046875 3.664062-4.398438 6.1875-8.207032 6.1875h-17.066406c-4.714844 0-8.535156-3.824219-8.535156-8.535157 0-4.710937 3.820312-8.535156 8.535156-8.535156h10.628906l15.292969-53.542968c1.015625-3.75 4.472657-6.3125 8.355469-6.1875 3.859375.066406 7.195312 2.714843 8.132812 6.457031l18.5 73.976562 7.796876-23.398437c1.03125-3.089844 3.730468-5.320313 6.960937-5.753906 3.226563-.433594 6.421875 1.007812 8.230469 3.714843l5.972656 8.96875 12.722656-57.285156c.867188-3.90625 4.335938-6.683594 8.335938-6.679687h.09375c4.023437.042968 7.46875 2.886718 8.269531 6.824218l13.03125 65.136719 5.640625-8.464844c1.589844-2.359375 4.253906-3.773437 7.101562-3.765625h25.597657c4.714843 0 8.535156 3.824219 8.535156 8.535156 0 4.710938-3.820313 8.535157-8.535156 8.535157h-21.035157l-14.503906 21.800781c-1.90625 2.886719-5.367187 4.335938-8.761718 3.671875-3.390626-.664063-6.050782-3.308594-6.726563-6.699219l-9.148437-45.699218-8.285157 37.34375c-.738281 3.339843-3.402343 5.917968-6.765625 6.546874-3.363281.625-6.777344-.8125-8.671875-3.664062l-7.390625-11.09375-11.554687 34.648438c-1.167969 3.472656-4.425781 5.808593-8.089844 5.808593zm0 0" fill="#ff5364"/><path d="m503.464844 230.363281c0 37.703125-30.5625 68.265625-68.265625 68.265625s-68.265625-30.5625-68.265625-68.265625 30.5625-68.265625 68.265625-68.265625 68.265625 30.5625 68.265625 68.265625zm0 0" fill="#65ddb9"/><path d="m435.199219 307.164062c-42.414063 0-76.800781-34.382812-76.800781-76.800781 0-42.414062 34.386718-76.800781 76.800781-76.800781 42.417969 0 76.800781 34.386719 76.800781 76.800781-.046875 42.398438-34.402344 76.753907-76.800781 76.800781zm0-136.535156c-24.160157 0-45.941407 14.554688-55.1875 36.875-9.242188 22.320313-4.132813 48.015625 12.949219 65.097656 17.085937 17.085938 42.777343 22.195313 65.097656 12.949219 22.320312-9.246093 36.875-31.027343 36.875-55.1875-.039063-32.972656-26.757813-59.695312-59.734375-59.734375zm0 0" fill="#24ae5f"/><path d="m426.667969 264.496094c-2.265625 0-4.433594-.898438-6.035157-2.5l-17.066406-17.066406c-3.234375-3.347657-3.1875-8.667969.105469-11.960938 3.289063-3.292969 8.613281-3.339844 11.960937-.105469l10.324219 10.328125 28.160157-35.226562c1.90625-2.382813 4.9375-3.566406 7.953124-3.105469 3.015626.460937 5.554688 2.492187 6.664063 5.332031s.617187 6.058594-1.285156 8.4375l-34.136719 42.667969c-1.511719 1.894531-3.761719 3.054687-6.183594 3.191406zm0 0" fill="#fff"/></svg>